<svg width="401" height="483" viewBox="0 0 401 483" fill="none" xmlns="http://www.w3.org/2000/svg">
<path d="M230.5 414C321.903 414 396 342.366 396 254C396 165.634 321.903 94 230.5 94C139.097 94 65 165.634 65 254C65 342.366 139.097 414 230.5 414Z" fill="#BDFFDF"/>
<path d="M230.5 414C321.903 414 396 342.366 396 254C396 165.634 321.903 94 230.5 94C139.097 94 65 165.634 65 254C65 342.366 139.097 414 230.5 414Z" fill="url(#paint0_linear)"/>
<path d="M395.521 307.142C395.118 304.897 394.702 302.682 394.275 300.497C394.274 300.497 394.273 300.497 394.272 300.497C394.272 300.496 394.271 300.496 394.27 300.495C394.27 300.495 394.269 300.494 394.269 300.493C394.269 300.492 394.269 300.492 394.269 300.491C388.862 272.839 381.576 250.165 372.948 231.671L350.087 223.195L367.319 220.541C360.352 207.802 352.676 197.368 344.517 188.899L302.527 194.071L334.221 179.431C275.974 132.207 199.61 170.138 178.801 182.059C175.947 183.688 174.141 184.836 173.563 185.206C173.557 185.206 173.557 185.206 173.551 185.213C173.425 185.297 173.364 185.336 173.364 185.336L185.178 191.949H185.184L394.979 309.401L395.521 307.142Z" fill="#63FFB4"/>
<path d="M395.521 307.142C395.792 305.981 396.051 304.817 396.298 303.651C395.684 302.684 395.009 301.626 394.275 300.497C394.274 300.497 394.273 300.497 394.272 300.497C394.272 300.496 394.271 300.496 394.27 300.495C394.27 300.495 394.269 300.494 394.269 300.493C394.269 300.492 394.269 300.492 394.269 300.491C370.076 263.209 281.399 141.39 179.253 182.74H179.247C177.356 183.506 175.462 184.328 173.563 185.206C173.557 185.206 173.557 185.206 173.551 185.213C171.823 186.011 170.093 186.859 168.361 187.757C167.482 188.204 166.609 188.672 165.73 189.145C164.965 189.561 164.206 189.983 163.442 190.417C163.442 190.417 159.095 191.592 154.224 196.018C144.656 204.727 133.06 226.005 148.425 275.688C148.425 275.688 162.069 316.851 155.247 335.968C148.425 355.073 190.723 377.124 202.988 335.968C215.264 294.8 219.365 255.104 219.365 255.104C219.365 255.104 233.478 287.155 232.087 319.297C231.515 332.471 232.605 345.657 235.898 358.344C236.236 359.674 236.603 361.005 236.97 362.354C241.408 378.416 248.332 399.078 258.531 419.059C263.337 428.58 268.884 437.644 275.113 446.152C283.274 443.294 291.234 439.809 298.932 435.724C322.39 423.292 343.101 405.583 359.669 383.791C376.238 362 388.279 336.633 394.979 309.401L395.521 307.142Z" fill="#3F3D56"/>
<path d="M167.528 205.12L162.072 156.604L185.261 191.888L167.528 205.12Z" fill="#3F3D56"/>
<path d="M155.638 208.614L150.182 160.099L173.371 195.383L155.638 208.614Z" fill="#3F3D56"/>
<path d="M143.761 253.822L85.4999 172.201L144.506 229.308L143.761 253.822Z" fill="#63FFB4"/>
<defs>
<linearGradient id="paint0_linear" x1="230.5" y1="94" x2="230.5" y2="414" gradientUnits="userSpaceOnUse">
<stop stop-color="#616161"/>
<stop offset="1" stop-color="white" stop-opacity="0"/>
</linearGradient>
</defs>
</svg>
